<?xml version="1.0" encoding="UTF-8"?>
<svg id="logo" xmlns="http://www.w3.org/2000/svg" viewBox="0 0 1000 600">
  <defs><style>.onyx{fill:#131313;}.mint{fill:#05ceaa;}</style></defs>
  <!-- Logo mark: 7-figure circle with one mint accent figure (top-right position) -->
  <g transform="translate(250,0)">
    <!-- Bottom center figure (head + body) -->
    <circle class="onyx" cx="500" cy="50" r="22"/>
    <path class="onyx" d="M445,106 c4,3 14,7 32,-1 11,-5 21,-12 29,-21 -11,3 -21,-1 -32,-11 -9,-8 -23,-7 -31,1 -8,9 -7,23 2,31z"/>
    <!-- Right upper figure -->
    <path class="onyx" d="M539,68 c-3,0 -6,1 -8,2 -7,4 -13,9 -19,15 -9,10 -20,18 -33,24 -7,3 -14,5 -22,5 -2,0 -3,0 -5,0 l31,31 c9,8 22,8 31,0 1,-1 1,-1 2,-2 l35,-36 c10,-7 12,-21 4,-31 -4,-5 -10,-8 -17,-9z"/>
    <!-- Right lower figure -->
    <circle class="onyx" cx="359" cy="131" r="22"/>
    <path class="onyx" d="M381,207 c5,-2 13,-9 15,-29 1,-12 0,-24 -3,-35 -3,11 -11,18 -25,22 -12,4 -18,16 -15,27 3,12 16,19 28,15z"/>
    <!-- Left side (mirrored) -->
    <path class="onyx" d="M395,106 c-1,2 -2,5 -3,8 0,8 2,16 4,24 4,13 6,27 5,41 -1,8 -3,15 -6,22 -1,1 -2,3 -3,4 l42,-11 h1 c12,-3 18,-16 15,-27 0,-1 -1,-2 -1,-3 l-13,-49 c-1,-12 -12,-21 -24,-19 -7,1 -13,5 -17,11z"/>
    <circle class="onyx" cx="359" cy="294" r="22"/>
    <path class="onyx" d="M436,313 c1,-5 -1,-15 -17,-27 -10,-7 -21,-12 -32,-15 8,8 10,19 7,33 -3,12 5,23 17,26 12,3 23,-5 25,-17z"/>
    <path class="onyx" d="M355,250 c1,2 3,5 5,6 7,4 15,7 23,9 13,3 26,9 38,16 6,4 11,10 15,16 1,1 2,3 2,5 l11,-42 v0 c3,-12 -4,-24 -16,-27 -1,0 -2,0 -3,-1 l-49,-13 c-11,-5 -24,0 -29,11 -3,6 -2,14 1,20z"/>
    <!-- Center/bottom figure -->
    <circle class="onyx" cx="500" cy="375" r="22"/>
    <path class="onyx" d="M555,318 c-4,-3 -14,-7 -32,1 -11,5 -21,12 -29,21 11,-3 21,1 32,11 4,4 9,6 15,6 12,0 22,-10 22,-22 0,-6 -3,-12 -8,-17z"/>
    <path class="onyx" d="M460,357 c3,0 6,-1 8,-2 7,-4 13,-9 19,-15 9,-10 20,-18 33,-24 7,-3 14,-5 22,-5 2,0 3,0 5,0 l-31,-31 c-9,-8 -22,-8 -31,0 -1,1 -1,1 -2,2 l-35,36 c-10,7 -12,21 -5,31 4,6 11,9 18,9z"/>
    <!-- Right accent figure (mint) -->
    <circle class="mint" cx="640" cy="131" r="22"/>
    <path class="mint" d="M564,113 c-1,5 1,15 17,27 10,7 21,12 32,15 -8,-8 -10,-19 -7,-33 1,-5 0,-11 -2,-16 -6,-10 -20,-14 -30,-8 -5,3 -9,9 -10,15z"/>
    <path class="mint" d="M645,175 c-1,-2 -3,-5 -5,-6 -7,-4 -15,-7 -23,-9 -13,-3 -26,-9 -37,-16 -6,-4 -12,-10 -16,-16 -1,-1 -2,-3 -2,-5 l-11,42 v0 c-3,12 4,24 16,27 1,0 2,0 3,1 l49,13 c11,5 24,-1 29,-12 3,-6 2,-13 -1,-19z"/>
  </g>
</svg>
